<svg width="30" height="30" viewBox="0 0 30 30" fill="none" xmlns="http://www.w3.org/2000/svg">
<circle cx="14.5833" cy="14.7069" r="14.5833" fill="#E0FFED"/>
<g clip-path="url(#clip0_3_7626)">
<path d="M15.0534 20.5872C19.7305 20.5872 23.5212 17.5077 23.5212 13.7072C23.5212 9.90663 19.7305 6.82715 15.0534 6.82715C10.3763 6.82715 6.5857 9.90663 6.5857 13.7072C6.5857 15.199 7.17117 16.5783 8.16348 17.7062C8.10063 18.5166 7.7864 19.2377 7.45563 19.7868C7.27371 20.0911 7.08847 20.3358 6.95286 20.5012C6.8834 20.5839 6.83047 20.6468 6.79078 20.6898C6.77093 20.7096 6.7577 20.7262 6.74778 20.7361L6.73786 20.746C6.5857 20.8982 6.5427 21.1231 6.6254 21.3215C6.70809 21.52 6.89994 21.649 7.11494 21.649C8.06425 21.649 9.02018 21.3546 9.81403 21.0106C10.5715 20.6798 11.2165 20.2862 11.6101 19.9985C12.662 20.3788 13.8263 20.5905 15.0534 20.5905V20.5872ZM13.995 11.061C13.995 10.7699 14.2331 10.5318 14.5242 10.5318H15.5827C15.8738 10.5318 16.1119 10.7699 16.1119 11.061V12.6487H17.6996C17.9907 12.6487 18.2288 12.8869 18.2288 13.178V14.2364C18.2288 14.5275 17.9907 14.7657 17.6996 14.7657H16.1119V16.3534C16.1119 16.6444 15.8738 16.8826 15.5827 16.8826H14.5242C14.2331 16.8826 13.995 16.6444 13.995 16.3534V14.7657H12.4073C12.1162 14.7657 11.878 14.5275 11.878 14.2364V13.178C11.878 12.8869 12.1162 12.6487 12.4073 12.6487H13.995V11.061Z" fill="#00BD4C"/>
</g>
<defs>
<clipPath id="clip0_3_7626">
<rect width="16.9355" height="16.9355" fill="white" transform="translate(6.58594 5.76855)"/>
</clipPath>
</defs>
</svg>
