<svg width="105" height="104" viewBox="0 0 105 104" fill="none" xmlns="http://www.w3.org/2000/svg">
<g clip-path="url(#clip0_26_9682)">
<path d="M59.3089 16.382V31.3474C63.7059 32.8566 67.5224 35.7002 70.2263 39.4818C72.9302 43.2634 74.3867 47.7945 74.3928 52.4433C74.389 57.094 72.9335 61.6274 70.2295 65.4112C67.5254 69.1949 63.7077 72.0402 59.3089 73.55V88.5154C67.6383 86.8312 75.1299 82.3206 80.5155 75.7472C85.9011 69.1737 88.8498 60.9412 88.8626 52.4433C88.8514 43.9461 85.903 35.7141 80.5169 29.142C75.1308 22.57 67.6383 18.062 59.3089 16.382ZM15.2747 52.4433C15.2864 60.9448 18.2375 69.1807 23.6277 75.755C29.0179 82.3293 36.5156 86.8375 44.8499 88.5154V73.55C40.4512 72.0402 36.6334 69.1949 33.9294 65.4112C31.2253 61.6274 29.7698 57.094 29.766 52.4433C29.7721 47.7945 31.2286 43.2634 33.9325 39.4818C36.6364 35.7002 40.4529 32.8566 44.8499 31.3474V16.382C36.5156 18.0557 29.0169 22.5613 23.6263 29.1342C18.2356 35.7071 15.2848 43.9426 15.2747 52.4433Z" fill="white"/>
<path d="M59.309 31.3474V52.8959C59.309 54.8133 58.5473 56.6521 57.1915 58.0079C55.8357 59.3637 53.9969 60.1254 52.0795 60.1254C50.1621 60.1254 48.3232 59.3637 46.9675 58.0079C45.6117 56.6521 44.85 54.8133 44.85 52.8959V31.3474C47.1736 30.5357 49.6181 30.1241 52.0795 30.1299C54.5408 30.1241 56.9853 30.5357 59.309 31.3474Z" fill="white"/>
</g>
<defs>
<clipPath id="clip0_26_9682">
<rect width="73.5664" height="72.1334" fill="white" transform="translate(15.296 16.3822)"/>
</clipPath>
</defs>
</svg>
