<svg width="33" height="33" viewBox="0 0 33 33" fill="none" xmlns="http://www.w3.org/2000/svg">
<circle cx="16.5" cy="16.5" r="16.5" fill="#2879FF"/>
<g clip-path="url(#clip0_3_8890)">
<path d="M25.4825 20.9441L22.8309 18.2926C21.884 17.3456 20.2741 17.7244 19.8953 18.9555C19.6113 19.8078 18.6643 20.2812 17.812 20.0918C15.9181 19.6183 13.3613 17.1562 12.8878 15.1676C12.6037 14.3153 13.1719 13.3683 14.0242 13.0843C15.2552 12.7055 15.634 11.0956 14.687 10.1487L12.0355 7.49716C11.278 6.83428 10.1416 6.83428 9.47872 7.49716L7.67948 9.29639C5.88024 11.1903 7.86887 16.2093 12.3196 20.66C16.7704 25.1107 21.7893 27.1941 23.6832 25.3001L25.4825 23.5009C26.1454 22.7433 26.1454 21.607 25.4825 20.9441Z" fill="white"/>
</g>
<defs>
<clipPath id="clip0_3_8890">
<rect width="19" height="19" fill="white" transform="translate(7 7)"/>
</clipPath>
</defs>
</svg>
