<svg width="33" height="33" viewBox="0 0 33 33" fill="none" xmlns="http://www.w3.org/2000/svg">
<circle cx="16.5" cy="16.5" r="16.5" fill="#2879FF"/>
<path d="M17 10.9219C16.7844 10.9219 16.6094 11.0969 16.6094 11.3125C16.6094 11.5281 16.7844 11.7031 17 11.7031C17.2156 11.7031 17.3906 11.5281 17.3906 11.3125C17.3906 11.0969 17.2156 10.9219 17 10.9219Z" fill="white" stroke="white" stroke-width="5"/>
<path d="M10.5156 17.9531C10.7312 17.9531 10.9062 17.7781 10.9062 17.5625C10.9062 17.3469 10.7312 17.1719 10.5156 17.1719C10.3 17.1719 10.125 17.3469 10.125 17.5625C10.125 17.7781 10.3 17.9531 10.5156 17.9531Z" fill="white" stroke="white" stroke-width="5"/>
<mask id="path-4-inside-1_3_8881" fill="white">
<path d="M20.125 7.01562C16.6083 7.01562 13.722 9.44025 13.4987 12.4943C10.1496 12.6623 7 15.0773 7 18.3438C7 19.7088 7.54016 21.0314 8.52344 22.0794C8.71799 22.8814 8.48178 23.7315 7.89569 24.3176C7.784 24.4293 7.75058 24.5973 7.811 24.7433C7.87143 24.8892 8.01379 24.9844 8.17188 24.9844C9.28592 24.9844 10.3595 24.5475 11.1573 23.7777C11.9344 24.0426 12.9483 24.2031 13.875 24.2031C17.3912 24.2031 20.2773 21.7791 20.5011 18.7257C21.319 18.6894 22.1697 18.5383 22.8427 18.309C23.6405 19.0788 24.7141 19.5156 25.8281 19.5156C25.9862 19.5156 26.1286 19.4204 26.189 19.2745C26.2494 19.1285 26.216 18.9605 26.1043 18.8488C25.5182 18.2627 25.282 17.4127 25.4766 16.6107C26.4598 15.5627 27 14.2401 27 12.875C27 9.48099 23.6078 7.01562 20.125 7.01562ZM13.875 23.4219C12.9531 23.4219 11.9025 23.2409 11.1988 22.9609C11.048 22.9008 10.8757 22.9403 10.766 23.0601C10.2944 23.5757 9.68112 23.9352 9.01294 24.1004C9.38113 23.395 9.47513 22.5634 9.25113 21.7755C9.23343 21.7133 9.20062 21.6566 9.15561 21.6104C8.26938 20.6976 7.78125 19.5374 7.78125 18.3438C7.78125 15.5911 10.5718 13.2656 13.875 13.2656C16.9942 13.2656 19.7344 15.4347 19.7344 18.3438C19.7344 21.1439 17.1059 23.4219 13.875 23.4219ZM24.8444 16.1416C24.7994 16.188 24.7666 16.2448 24.7489 16.3067C24.5249 17.0947 24.6189 17.9263 24.9871 18.6317C24.3189 18.4666 23.7056 18.1069 23.234 17.5913C23.1243 17.4717 22.952 17.432 22.8012 17.4922C22.1913 17.7348 21.3213 17.9028 20.4999 17.9434C20.3858 16.4662 19.6489 15.0778 18.3892 14.0469H23.4844C23.7001 14.0469 23.875 13.872 23.875 13.6562C23.875 13.4405 23.7001 13.2656 23.4844 13.2656H17.1891C16.3024 12.8143 15.3067 12.5511 14.282 12.4958C14.5064 9.87222 17.0414 7.79688 20.125 7.79688C23.4282 7.79688 26.2188 10.1223 26.2188 12.875C26.2188 14.0687 25.7306 15.2288 24.8444 16.1416Z"/>
</mask>
<path d="M20.125 7.01562C16.6083 7.01562 13.722 9.44025 13.4987 12.4943C10.1496 12.6623 7 15.0773 7 18.3438C7 19.7088 7.54016 21.0314 8.52344 22.0794C8.71799 22.8814 8.48178 23.7315 7.89569 24.3176C7.784 24.4293 7.75058 24.5973 7.811 24.7433C7.87143 24.8892 8.01379 24.9844 8.17188 24.9844C9.28592 24.9844 10.3595 24.5475 11.1573 23.7777C11.9344 24.0426 12.9483 24.2031 13.875 24.2031C17.3912 24.2031 20.2773 21.7791 20.5011 18.7257C21.319 18.6894 22.1697 18.5383 22.8427 18.309C23.6405 19.0788 24.7141 19.5156 25.8281 19.5156C25.9862 19.5156 26.1286 19.4204 26.189 19.2745C26.2494 19.1285 26.216 18.9605 26.1043 18.8488C25.5182 18.2627 25.282 17.4127 25.4766 16.6107C26.4598 15.5627 27 14.2401 27 12.875C27 9.48099 23.6078 7.01562 20.125 7.01562ZM13.875 23.4219C12.9531 23.4219 11.9025 23.2409 11.1988 22.9609C11.048 22.9008 10.8757 22.9403 10.766 23.0601C10.2944 23.5757 9.68112 23.9352 9.01294 24.1004C9.38113 23.395 9.47513 22.5634 9.25113 21.7755C9.23343 21.7133 9.20062 21.6566 9.15561 21.6104C8.26938 20.6976 7.78125 19.5374 7.78125 18.3438C7.78125 15.5911 10.5718 13.2656 13.875 13.2656C16.9942 13.2656 19.7344 15.4347 19.7344 18.3438C19.7344 21.1439 17.1059 23.4219 13.875 23.4219ZM24.8444 16.1416C24.7994 16.188 24.7666 16.2448 24.7489 16.3067C24.5249 17.0947 24.6189 17.9263 24.9871 18.6317C24.3189 18.4666 23.7056 18.1069 23.234 17.5913C23.1243 17.4717 22.952 17.432 22.8012 17.4922C22.1913 17.7348 21.3213 17.9028 20.4999 17.9434C20.3858 16.4662 19.6489 15.0778 18.3892 14.0469H23.4844C23.7001 14.0469 23.875 13.872 23.875 13.6562C23.875 13.4405 23.7001 13.2656 23.4844 13.2656H17.1891C16.3024 12.8143 15.3067 12.5511 14.282 12.4958C14.5064 9.87222 17.0414 7.79688 20.125 7.79688C23.4282 7.79688 26.2188 10.1223 26.2188 12.875C26.2188 14.0687 25.7306 15.2288 24.8444 16.1416Z" fill="white"/>
<path d="M13.4987 12.4943L13.7492 17.488L18.1632 17.2666L18.4854 12.8588L13.4987 12.4943ZM8.52344 22.0794L13.3825 20.9007L13.0717 19.6196L12.1697 18.6582L8.52344 22.0794ZM7.89569 24.3176L11.4312 27.8531L11.4312 27.8531L7.89569 24.3176ZM7.811 24.7433L3.19092 26.655L3.19163 26.6568L7.811 24.7433ZM11.1573 23.7777L12.7704 19.0451L9.88152 18.0604L7.68525 20.1798L11.1573 23.7777ZM20.5011 18.7257L20.2793 13.7306L15.8394 13.9277L15.5145 18.3601L20.5011 18.7257ZM22.8427 18.309L26.3147 14.711L24.1187 12.5919L21.2301 13.5762L22.8427 18.309ZM26.189 19.2745L30.8084 21.188L30.8091 21.1863L26.189 19.2745ZM26.1043 18.8488L22.5688 22.3843L22.5688 22.3844L26.1043 18.8488ZM25.4766 16.6107L21.8303 13.1895L20.9283 14.1508L20.6175 15.4319L25.4766 16.6107ZM11.1988 22.9609L9.34667 27.6052L9.35032 27.6067L11.1988 22.9609ZM10.766 23.0601L7.07889 19.683L7.07676 19.6853L10.766 23.0601ZM9.01294 24.1004L4.58041 21.7868L-0.550057 31.6162L10.2134 28.9542L9.01294 24.1004ZM9.25113 21.7755L14.0606 20.4082L14.0596 20.405L9.25113 21.7755ZM9.15561 21.6104L5.56828 25.0933L5.5731 25.0983L9.15561 21.6104ZM24.7489 16.3067L19.9412 14.9331L19.9394 14.9395L24.7489 16.3067ZM24.9871 18.6317L23.7877 23.4857L34.5486 26.1446L29.4196 16.3181L24.9871 18.6317ZM23.234 17.5913L26.9232 14.2165L26.919 14.2119L23.234 17.5913ZM22.8012 17.4922L24.6494 22.1381L24.6533 22.1365L22.8012 17.4922ZM20.4999 17.9434L15.5148 18.3285L15.8894 23.1773L20.7467 22.9373L20.4999 17.9434ZM18.3892 14.0469V9.04688H4.38387L15.2227 17.9164L18.3892 14.0469ZM17.1891 13.2656L14.9208 17.7215L15.9897 18.2656H17.1891V13.2656ZM14.282 12.4958L9.30015 12.0696L8.8603 17.2108L14.0128 17.4886L14.282 12.4958ZM20.125 2.01562C14.5099 2.01562 8.96207 5.9728 8.51202 12.1298L18.4854 12.8588C18.4863 12.8461 18.4995 12.682 18.772 12.4555C19.0471 12.227 19.5124 12.0156 20.125 12.0156V2.01562ZM13.2482 7.50057C8.22584 7.7525 2 11.5254 2 18.3438H12C12 18.34 12.0001 18.3436 11.9988 18.349C11.9977 18.3536 11.9985 18.3474 12.0077 18.3291C12.0272 18.2905 12.0906 18.1877 12.2461 18.0545C12.5858 17.7635 13.146 17.5183 13.7492 17.488L13.2482 7.50057ZM2 18.3438C2 21.0546 3.07676 23.5818 4.87714 25.5006L12.1697 18.6582C12.0843 18.5672 12.0425 18.4906 12.0226 18.4418C12.0031 18.3941 12 18.3626 12 18.3438H2ZM3.66436 23.2581C3.44948 22.3723 3.70816 21.434 4.36016 20.782L11.4312 27.8531C13.2554 26.0289 13.9865 23.3905 13.3825 20.9007L3.66436 23.2581ZM4.36016 20.782C2.81796 22.3242 2.35804 24.6422 3.19092 26.655L12.4311 22.8315C13.1431 24.5523 12.75 26.5343 11.4312 27.8531L4.36016 20.782ZM3.19163 26.6568C4.02573 28.6704 5.99088 29.9844 8.17188 29.9844V19.9844C10.0367 19.9844 11.7171 21.1079 12.4304 22.8298L3.19163 26.6568ZM8.17188 29.9844C10.5879 29.9844 12.9043 29.0402 14.6293 27.3757L7.68525 20.1798C7.81471 20.0548 7.98393 19.9844 8.17188 19.9844V29.9844ZM9.5441 28.5103C10.8937 28.9703 12.4586 29.2031 13.875 29.2031V19.2031C13.4381 19.2031 12.9751 19.1149 12.7704 19.0451L9.5441 28.5103ZM13.875 29.2031C19.4895 29.2031 25.0365 25.247 25.4877 19.0912L15.5145 18.3601C15.5136 18.3727 15.5004 18.5369 15.2278 18.7633C14.9528 18.9918 14.4875 19.2031 13.875 19.2031V29.2031ZM20.7229 23.7208C21.9422 23.6666 23.2698 23.4457 24.4554 23.0418L21.2301 13.5762C21.0696 13.6309 20.6958 13.7121 20.2793 13.7306L20.7229 23.7208ZM19.3707 21.9069C21.0957 23.5714 23.4121 24.5156 25.8281 24.5156V14.5156C26.0161 14.5156 26.1853 14.5861 26.3147 14.711L19.3707 21.9069ZM25.8281 24.5156C28.0091 24.5156 29.9743 23.2016 30.8084 21.188L21.5696 17.3611C22.2829 15.6392 23.9633 14.5156 25.8281 14.5156V24.5156ZM30.8091 21.1863C31.642 19.1735 31.182 16.8555 29.6398 15.3133L22.5688 22.3844C21.25 21.0655 20.8569 19.0835 21.5689 17.3628L30.8091 21.1863ZM29.6398 15.3133C30.2918 15.9653 30.5505 16.9035 30.3356 17.7894L20.6175 15.4319C20.0135 17.9218 20.7446 20.5602 22.5688 22.3843L29.6398 15.3133ZM29.1229 20.0318C30.9232 18.113 32 15.5858 32 12.875H22C22 12.8938 21.9969 12.9253 21.9774 12.973C21.9575 13.0218 21.9157 13.0984 21.8303 13.1895L29.1229 20.0318ZM32 12.875C32 5.79091 25.3385 2.01562 20.125 2.01562V12.0156C20.7368 12.0156 21.3399 12.2485 21.7195 12.5563C21.8933 12.6972 21.9664 12.8096 21.9899 12.8543C22.001 12.8754 22.0022 12.8831 22.0011 12.8789C21.9998 12.8737 22 12.8703 22 12.875H32ZM13.875 18.4219C13.7228 18.4219 13.5144 18.4052 13.3038 18.369C13.204 18.3518 13.1243 18.3337 13.0692 18.319C13.0104 18.3034 13.0057 18.2986 13.0472 18.3151L9.35032 27.6067C10.7548 28.1655 12.4536 28.4219 13.875 28.4219V18.4219ZM13.0509 18.3166C10.9663 17.4853 8.5897 18.0335 7.07889 19.683L14.4532 26.4372C13.1618 27.8472 11.1297 28.3163 9.34667 27.6052L13.0509 18.3166ZM7.07676 19.6853C7.27997 19.4631 7.53678 19.3149 7.81252 19.2467L10.2134 28.9542C11.8255 28.5555 13.3088 27.6882 14.4553 26.4349L7.07676 19.6853ZM13.4455 26.414C14.396 24.5929 14.6397 22.4455 14.0606 20.4082L4.44169 23.1427C4.31054 22.6813 4.36626 22.1971 4.58041 21.7868L13.4455 26.414ZM14.0596 20.405C13.8158 19.5494 13.363 18.7642 12.7381 18.1224L5.5731 25.0983C5.03825 24.5489 4.65108 23.8773 4.44262 23.1459L14.0596 20.405ZM12.7429 18.1274C12.7181 18.1018 12.7278 18.103 12.7448 18.1433C12.7623 18.1849 12.7812 18.2544 12.7812 18.3438H2.78125C2.78125 20.9295 3.84196 23.3153 5.56829 25.0933L12.7429 18.1274ZM12.7812 18.3438C12.7812 18.7306 12.5862 18.7836 12.7903 18.6135C12.9899 18.4472 13.3768 18.2656 13.875 18.2656V8.26562C8.70265 8.26562 2.78125 12.0148 2.78125 18.3438H12.7812ZM13.875 18.2656C14.3027 18.2656 14.6145 18.421 14.7523 18.5371C14.812 18.5875 14.8069 18.6023 14.7836 18.5556C14.7556 18.4995 14.7344 18.4187 14.7344 18.3438H24.7344C24.7344 11.9057 18.9198 8.26562 13.875 8.26562V18.2656ZM14.7344 18.3438C14.7344 18.2482 14.7593 18.1673 14.7812 18.1226C14.7997 18.0848 14.7998 18.104 14.7416 18.1544C14.6171 18.2623 14.3243 18.4219 13.875 18.4219V28.4219C19.1716 28.4219 24.7344 24.5531 24.7344 18.3438H14.7344ZM21.2561 12.6596C20.6373 13.2973 20.1855 14.0782 19.9413 14.9331L29.5565 17.6803C29.3476 18.4113 28.9614 19.0787 28.4326 19.6236L21.2561 12.6596ZM19.9394 14.9395C19.3603 16.9767 19.604 19.1242 20.5545 20.9453L29.4196 16.3181C29.6337 16.7284 29.6895 17.2126 29.5583 17.6739L19.9394 14.9395ZM26.1864 13.7777C26.4636 13.8462 26.7205 13.9949 26.9232 14.2165L19.5447 20.9662C20.6907 22.219 22.1741 23.087 23.7877 23.4857L26.1864 13.7777ZM26.919 14.2119C25.411 12.5676 23.0368 12.0153 20.9491 12.8478L24.6533 22.1365C22.8672 22.8488 20.8375 22.3758 19.549 20.9708L26.919 14.2119ZM20.9531 12.8463C20.9906 12.8314 20.9917 12.8333 20.9504 12.8449C20.9114 12.8558 20.8512 12.8707 20.7717 12.8862C20.6067 12.9184 20.4216 12.9411 20.2531 12.9495L20.7467 22.9373C21.9654 22.877 23.404 22.6335 24.6494 22.1381L20.9531 12.8463ZM25.4851 17.5582C25.2585 14.6262 23.7968 12.0113 21.5557 10.1773L15.2227 17.9164C15.369 18.0362 15.4397 18.1387 15.4724 18.1995C15.5046 18.2591 15.5126 18.3004 15.5148 18.3285L25.4851 17.5582ZM18.3892 19.0469H23.4844V9.04688H18.3892V19.0469ZM23.4844 19.0469C26.4616 19.0469 28.875 16.6334 28.875 13.6562H18.875C18.875 11.1106 20.9387 9.04688 23.4844 9.04688V19.0469ZM28.875 13.6562C28.875 10.6791 26.4616 8.26562 23.4844 8.26562V18.2656C20.9387 18.2656 18.875 16.2019 18.875 13.6562H28.875ZM23.4844 8.26562H17.1891V18.2656H23.4844V8.26562ZM19.4573 8.80971C17.9273 8.03091 16.2477 7.59452 14.5511 7.50307L14.0128 17.4886C14.3657 17.5076 14.6774 17.5976 14.9208 17.7215L19.4573 8.80971ZM19.2638 12.922C19.2451 13.1405 19.1419 13.1582 19.2751 13.0505C19.41 12.9414 19.6982 12.7969 20.125 12.7969V2.79688C15.0323 2.79688 9.79265 6.31292 9.30015 12.0696L19.2638 12.922ZM20.125 12.7969C20.6232 12.7969 21.0101 12.9785 21.2097 13.1448C21.4138 13.3149 21.2188 13.2619 21.2188 12.875H31.2188C31.2188 6.54603 25.2973 2.79688 20.125 2.79688V12.7969ZM21.2188 12.875C21.2188 12.7857 21.2377 12.7162 21.2552 12.6746C21.2722 12.6343 21.2819 12.6331 21.2571 12.6586L28.4317 19.6246C30.158 17.8465 31.2188 15.4608 31.2188 12.875H21.2188Z" fill="white" mask="url(#path-4-inside-1_3_8881)"/>
<mask id="path-6-inside-2_3_8881" fill="white">
<path d="M17 17.1719H12.0781C11.8624 17.1719 11.6875 17.3467 11.6875 17.5625C11.6875 17.7783 11.8624 17.9531 12.0781 17.9531H17C17.2158 17.9531 17.3906 17.7783 17.3906 17.5625C17.3906 17.3467 17.2158 17.1719 17 17.1719Z"/>
</mask>
<path d="M17 17.1719H12.0781C11.8624 17.1719 11.6875 17.3467 11.6875 17.5625C11.6875 17.7783 11.8624 17.9531 12.0781 17.9531H17C17.2158 17.9531 17.3906 17.7783 17.3906 17.5625C17.3906 17.3467 17.2158 17.1719 17 17.1719Z" fill="white"/>
<path d="M17 12.1719H12.0781V22.1719H17V12.1719ZM12.0781 12.1719C9.10094 12.1719 6.6875 14.5853 6.6875 17.5625H16.6875C16.6875 20.1082 14.6238 22.1719 12.0781 22.1719V12.1719ZM6.6875 17.5625C6.6875 20.5397 9.10094 22.9531 12.0781 22.9531V12.9531C14.6238 12.9531 16.6875 15.0168 16.6875 17.5625H6.6875ZM12.0781 22.9531H17V12.9531H12.0781V22.9531ZM17 22.9531C19.9772 22.9531 22.3906 20.5397 22.3906 17.5625H12.3906C12.3906 15.0168 14.4543 12.9531 17 12.9531V22.9531ZM22.3906 17.5625C22.3906 14.5853 19.9772 12.1719 17 12.1719V22.1719C14.4543 22.1719 12.3906 20.1082 12.3906 17.5625H22.3906Z" fill="white" mask="url(#path-6-inside-2_3_8881)"/>
<mask id="path-8-inside-3_3_8881" fill="white">
<path d="M17 19.5156H10.5156C10.2999 19.5156 10.125 19.6905 10.125 19.9062C10.125 20.122 10.2999 20.2969 10.5156 20.2969H17C17.2158 20.2969 17.3906 20.122 17.3906 19.9062C17.3906 19.6905 17.2158 19.5156 17 19.5156Z"/>
</mask>
<path d="M17 19.5156H10.5156C10.2999 19.5156 10.125 19.6905 10.125 19.9062C10.125 20.122 10.2999 20.2969 10.5156 20.2969H17C17.2158 20.2969 17.3906 20.122 17.3906 19.9062C17.3906 19.6905 17.2158 19.5156 17 19.5156Z" fill="white"/>
<path d="M17 14.5156H10.5156V24.5156H17V14.5156ZM10.5156 14.5156C7.53844 14.5156 5.125 16.9291 5.125 19.9062H15.125C15.125 22.4519 13.0613 24.5156 10.5156 24.5156V14.5156ZM5.125 19.9062C5.125 22.8834 7.53844 25.2969 10.5156 25.2969V15.2969C13.0613 15.2969 15.125 17.3606 15.125 19.9062H5.125ZM10.5156 25.2969H17V15.2969H10.5156V25.2969ZM17 25.2969C19.9772 25.2969 22.3906 22.8834 22.3906 19.9062H12.3906C12.3906 17.3606 14.4543 15.2969 17 15.2969V25.2969ZM22.3906 19.9062C22.3906 16.9291 19.9772 14.5156 17 14.5156V24.5156C14.4543 24.5156 12.3906 22.4519 12.3906 19.9062H22.3906Z" fill="white" mask="url(#path-8-inside-3_3_8881)"/>
<mask id="path-10-inside-4_3_8881" fill="white">
<path d="M23.4844 10.9219H18.5625C18.3467 10.9219 18.1719 11.0967 18.1719 11.3125C18.1719 11.5283 18.3467 11.7031 18.5625 11.7031H23.4844C23.7001 11.7031 23.875 11.5283 23.875 11.3125C23.875 11.0967 23.7001 10.9219 23.4844 10.9219Z"/>
</mask>
<path d="M23.4844 10.9219H18.5625C18.3467 10.9219 18.1719 11.0967 18.1719 11.3125C18.1719 11.5283 18.3467 11.7031 18.5625 11.7031H23.4844C23.7001 11.7031 23.875 11.5283 23.875 11.3125C23.875 11.0967 23.7001 10.9219 23.4844 10.9219Z" fill="white"/>
<path d="M23.4844 5.92188H18.5625V15.9219H23.4844V5.92188ZM18.5625 5.92188C15.5853 5.92188 13.1719 8.33532 13.1719 11.3125H23.1719C23.1719 13.8582 21.1082 15.9219 18.5625 15.9219V5.92188ZM13.1719 11.3125C13.1719 14.2897 15.5853 16.7031 18.5625 16.7031V6.70312C21.1082 6.70312 23.1719 8.76684 23.1719 11.3125H13.1719ZM18.5625 16.7031H23.4844V6.70312H18.5625V16.7031ZM23.4844 16.7031C26.4616 16.7031 28.875 14.2897 28.875 11.3125H18.875C18.875 8.76684 20.9387 6.70312 23.4844 6.70312V16.7031ZM28.875 11.3125C28.875 8.33532 26.4616 5.92188 23.4844 5.92188V15.9219C20.9387 15.9219 18.875 13.8582 18.875 11.3125H28.875Z" fill="white" mask="url(#path-10-inside-4_3_8881)"/>
</svg>
