<svg width="17" height="13" viewBox="0 0 17 13" fill="none" xmlns="http://www.w3.org/2000/svg">
<g clip-path="url(#clip0_3_7617)">
<path fill-rule="evenodd" clip-rule="evenodd" d="M0.290039 0.454102H16.2847V1.39534H0.290039V0.454102ZM0.290039 2.33656H16.2847V3.2778H0.290039V2.33656ZM0.290039 4.21662H16.2847V5.16023H0.290039V4.21662ZM0.290039 6.09907H16.2847V7.04031H0.290039V6.09907ZM0.290039 7.98153H16.2847V8.92277H0.290039V7.98153ZM0.290039 9.86159H16.2847V10.8028H0.290039V9.86159ZM0.290039 11.744H16.2847V12.6853H0.290039V11.744Z" fill="#BD3D44"/>
<path fill-rule="evenodd" clip-rule="evenodd" d="M0.290039 1.39551H16.2847V2.33672H0.290039V1.39551ZM0.290039 3.27794H16.2847V4.21678H0.290039V3.27794ZM0.290039 5.15802H16.2847V6.09924H0.290039V5.15802ZM0.290039 7.04048H16.2847V7.98169H0.290039V7.04048ZM0.290039 8.92293H16.2847V9.86415H0.290039V8.92293ZM0.290039 10.803H16.2847V11.7442H0.290039V10.803Z" fill="white"/>
<path fill-rule="evenodd" clip-rule="evenodd" d="M0.290039 0.454102H6.68756V7.04031H0.290039V0.454102Z" fill="#192F5D"/>
<path fill-rule="evenodd" clip-rule="evenodd" d="M0.822791 0.73584L0.881981 0.996186H1.06943L0.918145 1.15626L0.975704 1.41903L0.822791 1.25658L0.671526 1.41663L0.729068 1.15626L0.576172 0.996186H0.766897L0.822791 0.73584ZM1.88987 0.73584L1.94741 0.996186H2.13649L1.98358 1.15626L2.04114 1.41903L1.88987 1.25658L1.73696 1.41663L1.7945 1.15626L1.64323 0.996186H1.83068L1.88987 0.73584ZM2.9553 0.73584L3.01449 0.996211H3.20029L3.04902 1.15629L3.10655 1.41905L2.95365 1.25661L2.80239 1.41666L2.85993 1.15629L2.70702 0.996211H2.89611L2.9553 0.73584ZM4.02238 0.73584L4.07991 0.996211H4.269L4.11609 1.15629L4.17528 1.41905L4.02236 1.25661L3.86947 1.41666L3.92866 1.15629L3.77575 0.996211H3.96319L4.02238 0.73584ZM5.08781 0.73584L5.147 0.996211H5.33443L5.18317 1.15629L5.24071 1.41905L5.0878 1.25661L4.93653 1.41666L4.99409 1.15629L4.84283 0.996211H5.03025L5.08781 0.73584ZM6.15488 0.73584L6.21242 0.996211H6.40151L6.2486 1.15629L6.30779 1.41905L6.15488 1.25661L6.00196 1.41666L6.06115 1.15629L5.90826 0.996211H6.09733L6.15488 0.73584ZM1.35716 1.39513L1.4147 1.65555H1.60377L1.45086 1.81557L1.50677 2.076L1.35879 1.91592L1.20589 2.07597L1.26013 1.8156L1.11217 1.65552H1.29961L1.35716 1.39513ZM2.42259 1.39513L2.48178 1.65555H2.66921L2.51629 1.81557L2.5755 2.076L2.42257 1.91592L2.26967 2.07597L2.32886 1.8156L2.17595 1.65552H2.36503L2.42259 1.39513ZM3.48967 1.39513L3.54719 1.65555H3.73628L3.58337 1.81557L3.64091 2.076L3.48965 1.91592L3.33675 2.07597L3.39429 1.81562L3.24303 1.65555H3.43048L3.48967 1.39513ZM4.5551 1.39513L4.61429 1.65555H4.80172L4.6488 1.81557L4.70799 2.076L4.55508 1.91592L4.40382 2.07597L4.46137 1.8156L4.30846 1.65552H4.49919L4.5551 1.39513ZM5.62216 1.39513L5.6797 1.65555H5.8688L5.71588 1.81557L5.77343 2.076L5.62216 1.91592L5.46925 2.07597L5.52681 1.8156L5.37554 1.65552H5.56297L5.62216 1.39513ZM0.822791 2.05214L0.881981 2.31731H1.06943L0.918145 2.47736L0.975704 2.73775L0.822791 2.57531L0.671526 2.73775L0.729068 2.47496L0.576172 2.31494H0.766897L0.822791 2.05214ZM1.88987 2.05214L1.94741 2.31486H2.13649L1.98358 2.47491L2.04114 2.73533L1.88987 2.57286L1.73696 2.73531L1.7945 2.47254L1.64323 2.31249H1.83068L1.88987 2.05214ZM2.9553 2.05214L3.01449 2.31491H3.20029L3.04902 2.47496L3.10655 2.73538L2.95365 2.57291L2.80239 2.73536L2.85993 2.47259L2.70702 2.31254H2.89611L2.9553 2.05214ZM4.02238 2.05214L4.07991 2.31491H4.269L4.11609 2.47496L4.17528 2.73538L4.02236 2.57291L3.86947 2.73536L3.92866 2.47259L3.77575 2.31254H3.96319L4.02238 2.05214ZM5.08781 2.05214L5.147 2.31491H5.33443L5.18317 2.47494L5.24071 2.73536L5.0878 2.57289L4.93653 2.73533L4.99409 2.47257L4.84283 2.31252H5.03025L5.08781 2.05214ZM6.15488 2.05214L6.21242 2.31491H6.40151L6.2486 2.47496L6.30779 2.73538L6.15488 2.57291L6.00196 2.73536L6.06115 2.47259L5.90826 2.31254H6.09733L6.15488 2.05214ZM1.35716 2.71146L1.4147 2.97185H1.60377L1.45086 3.13188L1.50842 3.39467L1.35716 3.23222L1.20424 3.39227L1.26178 3.1319L1.11052 2.97185H1.29798L1.35716 2.71146ZM2.42259 2.71146L2.48178 2.97185H2.66921L2.51629 3.13188L2.5755 3.39467L2.42257 3.23222L2.26967 3.39227L2.32886 3.1319L2.17595 2.97185H2.36503L2.42259 2.71146ZM3.48967 2.71146L3.54719 2.97185H3.73628L3.58337 3.13188L3.64091 3.39467L3.48965 3.23222L3.33675 3.39227L3.39429 3.1319L3.24303 2.97185H3.43048L3.48967 2.71146ZM4.5551 2.71146L4.61429 2.97185H4.80172L4.65045 3.13188L4.70799 3.39467L4.55508 3.23222L4.40382 3.39227L4.46137 3.1319L4.30846 2.97185H4.49919L4.5551 2.71146ZM5.62216 2.71146L5.6797 2.97185H5.8688L5.71588 3.13188L5.77343 3.39467L5.62216 3.23222L5.46925 3.39227L5.52681 3.1319L5.37554 2.97185H5.56297L5.62216 2.71146ZM0.822791 3.37079L0.881981 3.63119H1.06943L0.918145 3.79121L0.975704 4.05401L0.822791 3.89156L0.671526 4.05161L0.729068 3.79124L0.576172 3.63119H0.766897L0.822791 3.37079ZM1.88987 3.37079L1.94741 3.63119H2.13649L1.98358 3.79121L2.04114 4.05164L1.88987 3.89156L1.73696 4.05161L1.7945 3.79124L1.64323 3.63119H1.83068L1.88987 3.37079ZM2.9553 3.37079L3.01449 3.63119H3.20029L3.04902 3.79121L3.10655 4.05401L2.95365 3.89156L2.80239 4.05161L2.85993 3.79124L2.70702 3.63119H2.89611L2.9553 3.37079ZM4.02238 3.37079L4.07991 3.63119H4.269L4.11609 3.79121L4.17528 4.05401L4.02236 3.89156L3.86947 4.05161L3.92866 3.79124L3.77575 3.63119H3.96319L4.02238 3.37079ZM5.08781 3.37079L5.147 3.63119H5.33443L5.18317 3.79121L5.24071 4.05401L5.0878 3.89156L4.93653 4.05161L4.99409 3.79124L4.84283 3.63119H5.03025L5.08781 3.37079ZM6.15488 3.37079L6.21242 3.63119H6.40151L6.2486 3.79121L6.30779 4.05401L6.15488 3.89156L6.00196 4.05161L6.06115 3.79124L5.90826 3.63119H6.09733L6.15488 3.37079ZM1.35716 4.03013L1.4147 4.29053H1.60377L1.45086 4.45055L1.50842 4.71097L1.35716 4.54853L1.20424 4.71097L1.26178 4.44818L1.11052 4.28813H1.29798L1.35716 4.03013ZM2.42259 4.03013L2.48178 4.29053H2.66921L2.51629 4.45055L2.5755 4.71097L2.42257 4.54853L2.26967 4.71097L2.32886 4.44818L2.17595 4.28813H2.36503L2.42259 4.03013ZM3.48967 4.03013L3.54719 4.29053H3.73628L3.58337 4.45055L3.64091 4.71097L3.48965 4.54853L3.33675 4.71097L3.39429 4.44818L3.24303 4.28813H3.43048L3.48967 4.03013ZM4.5551 4.03013L4.61429 4.29053H4.80172L4.65045 4.45055L4.70799 4.71097L4.55508 4.54853L4.40382 4.71097L4.46137 4.44818L4.30846 4.28813H4.49919L4.5551 4.03013ZM5.62216 4.03013L5.6797 4.29053H5.8688L5.71588 4.45055L5.77343 4.71097L5.62216 4.54853L5.46925 4.71097L5.52681 4.44818L5.37554 4.28813H5.56297L5.62216 4.03013ZM0.822791 4.68707L0.881981 4.94986H1.06943L0.918145 5.10989L0.975704 5.36792L0.822791 5.20787L0.671526 5.36789L0.729068 5.10752L0.576172 4.94747H0.766897L0.822791 4.68707ZM1.88987 4.68707L1.94741 4.94986H2.13649L1.98358 5.10989L2.04278 5.36792L1.88985 5.20787L1.73696 5.36789L1.79615 5.10752L1.64323 4.94747H1.83068L1.88987 4.68707ZM2.9553 4.68707L3.01449 4.94986H3.20029L3.04902 5.10989L3.10655 5.36792L2.95365 5.20787L2.80239 5.36789L2.85993 5.10752L2.70702 4.94747H2.89611L2.9553 4.68707ZM4.02238 4.68707L4.07991 4.94986H4.269L4.11609 5.10989L4.17528 5.36792L4.02236 5.20787L3.86947 5.36789L3.92866 5.10752L3.77575 4.94747H3.96319L4.02238 4.68707ZM5.08781 4.68707L5.147 4.94986H5.33443L5.18317 5.10989L5.24071 5.36792L5.0878 5.20787L4.93653 5.36789L4.99409 5.10752L4.84283 4.94747H5.03025L5.08781 4.68707ZM6.15488 4.68707L6.21242 4.94986H6.40151L6.2486 5.10989L6.30779 5.36792L6.15488 5.20787L6.00196 5.36789L6.06115 5.10752L5.90826 4.94747H6.09733L6.15488 4.68707ZM1.35716 5.34641L1.4147 5.60681H1.60377L1.45086 5.76686L1.50842 6.02965L1.35716 5.8672L1.20424 6.02723L1.26178 5.76686L1.11052 5.60681H1.29798L1.35716 5.34641ZM2.42259 5.34641L2.48178 5.60681H2.66921L2.51629 5.76686L2.5755 6.02965L2.42257 5.8672L2.26967 6.02723L2.32886 5.76686L2.17595 5.60681H2.36503L2.42259 5.34641ZM3.48967 5.34641L3.54719 5.60681H3.73628L3.58337 5.76686L3.64091 6.02965L3.48965 5.8672L3.33675 6.02723L3.39429 5.76686L3.24303 5.60681H3.43048L3.48967 5.34641ZM4.5551 5.34641L4.61429 5.60681H4.80172L4.65045 5.76686L4.70799 6.02965L4.55508 5.8672L4.40382 6.02723L4.46137 5.76686L4.30846 5.60681H4.49919L4.5551 5.34641ZM5.62216 5.34641L5.6797 5.60681H5.8688L5.71588 5.76686L5.77343 6.02965L5.62216 5.8672L5.46925 6.02723L5.52681 5.76686L5.37554 5.60681H5.56297L5.62216 5.34641ZM0.822791 6.00575L0.881981 6.26614H1.06943L0.918145 6.42619L0.975704 6.68659L0.822791 6.52654L0.671526 6.68656L0.729068 6.4238L0.576172 6.26375H0.766897L0.822791 6.00575ZM1.88987 6.00575L1.94741 6.26614H2.13649L1.98358 6.42619L2.04278 6.68659L1.88985 6.52654L1.73696 6.68656L1.79615 6.4238L1.64323 6.26375H1.83068L1.88987 6.00575ZM2.9553 6.00575L3.01449 6.26614H3.20029L3.0523 6.42619L3.10985 6.68659L2.95693 6.52654L2.80567 6.68656L2.86323 6.4238L2.71031 6.26375H2.89939L2.9553 6.00575ZM4.02238 6.00575L4.07991 6.26614H4.269L4.11609 6.42619L4.17528 6.68659L4.02236 6.52654L3.86947 6.68656L3.92866 6.4238L3.77575 6.26375H3.96319L4.02238 6.00575ZM5.08781 6.00575L5.147 6.26614H5.33443L5.18317 6.42619L5.24071 6.68659L5.0878 6.52654L4.93653 6.68656L4.99409 6.4238L4.84283 6.26375H5.03025L5.08781 6.00575ZM6.15488 6.00575L6.21242 6.26614H6.40151L6.2486 6.42619L6.30779 6.68659L6.15488 6.52654L6.00196 6.68656L6.06115 6.4238L5.90826 6.26375H6.09733L6.15488 6.00575Z" fill="white"/>
</g>
<defs>
<clipPath id="clip0_3_7617">
<rect width="15.9946" height="12.2312" fill="white" transform="translate(0.290039 0.454102)"/>
</clipPath>
</defs>
</svg>
